<?xml version="1.0" encoding="UTF-8" standalone="no"?>
<!-- Created with Inkscape (http://www.inkscape.org/) -->

<svg
   xmlns:dc="http://purl.org/dc/elements/1.1/"
   xmlns:cc="http://creativecommons.org/ns#"
   xmlns:rdf="http://www.w3.org/1999/02/22-rdf-syntax-ns#"
   xmlns:svg="http://www.w3.org/2000/svg"
   xmlns="http://www.w3.org/2000/svg"
   xmlns:sodipodi="http://sodipodi.sourceforge.net/DTD/sodipodi-0.dtd"
   xmlns:inkscape="http://www.inkscape.org/namespaces/inkscape"
   width="210mm"
   height="297mm"
   viewBox="0 0 210 297"
   version="1.1"
   id="svg8"
   inkscape:version="0.92.1 r"
   sodipodi:docname="Icon.svg">
  <defs
     id="defs2" />
  <sodipodi:namedview
     id="base"
     pagecolor="#ffffff"
     bordercolor="#666666"
     borderopacity="1.0"
     inkscape:pageopacity="0.0"
     inkscape:pageshadow="2"
     inkscape:zoom="0.7"
     inkscape:cx="356.21769"
     inkscape:cy="651.60874"
     inkscape:document-units="mm"
     inkscape:current-layer="layer1"
     showgrid="false"
     inkscape:snap-global="false"
     inkscape:window-width="1247"
     inkscape:window-height="780"
     inkscape:window-x="33"
     inkscape:window-y="0"
     inkscape:window-maximized="1" />
  <metadata
     id="metadata5">
    <rdf:RDF>
      <cc:Work
         rdf:about="">
        <dc:format>image/svg+xml</dc:format>
        <dc:type
           rdf:resource="http://purl.org/dc/dcmitype/StillImage" />
        <dc:title></dc:title>
      </cc:Work>
    </rdf:RDF>
  </metadata>
  <g
     inkscape:label="Ebene 1"
     inkscape:groupmode="layer"
     id="layer1">
    <rect
       style="fill:#ff6600;fill-opacity:1;stroke:#000000;stroke-width:0.23309791;stroke-miterlimit:4;stroke-dasharray:none"
       id="rect10"
       width="83.910713"
       height="83.910713"
       x="24.946428"
       y="67.190475"
       ry="10.583333" />
    <text
       xml:space="preserve"
       style="font-style:normal;font-weight:normal;font-size:26.10714722px;line-height:1.25;font-family:sans-serif;letter-spacing:0px;word-spacing:0px;fill:#ffffff;fill-opacity:1;stroke:#000000;stroke-width:2.953;stroke-miterlimit:4;stroke-dasharray:none"
       x="29.204918"
       y="141.56332"
       id="text14-7"
       transform="scale(0.99882628,1.0011751)"><tspan
         sodipodi:role="line"
         id="tspan12-5"
         x="29.204918"
         y="141.56332"
         style="fill:#ffffff;stroke-width:2.953;stroke:#000000;stroke-miterlimit:4;stroke-dasharray:none">AR</tspan></text>
    <text
       xml:space="preserve"
       style="font-style:normal;font-weight:normal;font-size:26.10714722px;line-height:1.25;font-family:sans-serif;letter-spacing:0px;word-spacing:0px;fill:#ffffff;fill-opacity:1;stroke:none;stroke-width:0.65267867"
       x="28.260344"
       y="141.86305"
       id="text14"
       transform="scale(0.99882628,1.0011751)"><tspan
         sodipodi:role="line"
         id="tspan12"
         x="28.260344"
         y="141.86305"
         style="fill:#ffffff;stroke-width:0.65267867">AR</tspan></text>
    <path
       style="fill:#ffffff;fill-opacity:1;stroke:#000000;stroke-width:0.62688923;stroke-miterlimit:4;stroke-dasharray:none"
       d="m 42.690024,56.109985 a 78.968457,78.592944 0 0 0 -2.54797,0.126045 v 30.787922 a 47.506253,47.28035 0 0 1 3.056447,-0.108097 47.506253,47.28035 0 0 1 47.507253,47.279935 47.506253,47.28035 0 0 1 -0.05155,1.01493 h 30.985156 a 78.968457,78.592944 0 0 0 0.0181,-0.50745 78.968457,78.592944 0 0 0 -78.967442,-78.593347 z"
       id="path16-6"
       inkscape:connector-curvature="0" />
    <text
       xml:space="preserve"
       style="font-style:normal;font-weight:normal;font-size:10.58333302px;line-height:1.25;font-family:sans-serif;letter-spacing:0px;word-spacing:0px;fill:#ffffff;fill-opacity:1;stroke:none;stroke-width:0.26458332"
       x="66.674995"
       y="142.33212"
       id="text880"><tspan
         sodipodi:role="line"
         id="tspan878"
         x="66.674995"
         y="142.33212"
         style="fill:#ffffff;stroke-width:0.26458332">ss</tspan></text>
    <path
       style="fill:#000000;fill-opacity:1;stroke:#000000;stroke-width:0.34102136;stroke-miterlimit:4;stroke-dasharray:none"
       d="m 41.184452,92.379712 a 43.776303,41.954602 0 0 0 -1.412472,0.06732 v 16.435248 a 26.335175,25.239267 0 0 1 1.694347,-0.0577 26.335175,25.239267 0 0 1 26.335729,25.23905 26.335175,25.239267 0 0 1 -0.02857,0.54179 h 17.176681 a 43.776303,41.954602 0 0 0 0.01,-0.2709 43.776303,41.954602 0 0 0 -43.775752,-41.954798 z"
       id="path16-3"
       inkscape:connector-curvature="0" />
    <path
       style="fill:#ffffff;fill-opacity:1;stroke:#000000;stroke-width:0.33094165;stroke-miterlimit:4;stroke-dasharray:none"
       d="m 41.441703,92.639218 a 41.589067,41.589067 0 0 0 -1.341899,0.06673 V 108.998 a 25.019367,25.019367 0 0 1 1.609691,-0.0572 25.019367,25.019367 0 0 1 25.019893,25.01915 25.019367,25.019367 0 0 1 -0.02715,0.53707 h 16.318471 a 41.589067,41.589067 0 0 0 0.0095,-0.26853 41.589067,41.589067 0 0 0 -41.588545,-41.589274 z"
       id="path16"
       inkscape:connector-curvature="0" />
  </g>
</svg>
