<?xml version="1.0" encoding="UTF-8" standalone="no"?>
<!-- Created with Inkscape (http://www.inkscape.org/) -->

<svg
   xmlns:dc="http://purl.org/dc/elements/1.1/"
   xmlns:cc="http://creativecommons.org/ns#"
   xmlns:rdf="http://www.w3.org/1999/02/22-rdf-syntax-ns#"
   xmlns:svg="http://www.w3.org/2000/svg"
   xmlns="http://www.w3.org/2000/svg"
   xmlns:sodipodi="http://sodipodi.sourceforge.net/DTD/sodipodi-0.dtd"
   xmlns:inkscape="http://www.inkscape.org/namespaces/inkscape"
   width="210mm"
   height="297mm"
   viewBox="0 0 210 297"
   version="1.1"
   id="svg8"
   inkscape:version="0.92.1 r"
   sodipodi:docname="Icon_sw.svg">
  <defs
     id="defs2" />
  <sodipodi:namedview
     id="base"
     pagecolor="#ffffff"
     bordercolor="#666666"
     borderopacity="1.0"
     inkscape:pageopacity="0.0"
     inkscape:pageshadow="2"
     inkscape:zoom="0.7"
     inkscape:cx="-1.6394529"
     inkscape:cy="651.60874"
     inkscape:document-units="mm"
     inkscape:current-layer="layer1"
     showgrid="false"
     inkscape:snap-global="false"
     inkscape:window-width="1247"
     inkscape:window-height="780"
     inkscape:window-x="33"
     inkscape:window-y="0"
     inkscape:window-maximized="1" />
  <metadata
     id="metadata5">
    <rdf:RDF>
      <cc:Work
         rdf:about="">
        <dc:format>image/svg+xml</dc:format>
        <dc:type
           rdf:resource="http://purl.org/dc/dcmitype/StillImage" />
        <dc:title></dc:title>
      </cc:Work>
    </rdf:RDF>
  </metadata>
  <g
     inkscape:label="Ebene 1"
     inkscape:groupmode="layer"
     id="layer1">
    <path
       style="fill:#e6e6e6;fill-opacity:1;stroke:none;stroke-width:0.23446372;stroke-miterlimit:4;stroke-dasharray:none"
       d="m 44.945336,54.099263 a 78.967349,79.517769 0 0 0 -2.547613,0.127574 v 31.150072 a 47.505586,47.836712 0 0 1 3.056101,-0.109274 47.505586,47.836712 0 0 1 47.506512,47.836155 47.505586,47.836712 0 0 1 -0.05116,1.02687 h 30.984754 a 78.967349,79.517769 0 0 0 0.0181,-0.51344 78.967349,79.517769 0 0 0 -78.966694,-79.517957 z m -7.903281,12.481361 c -5.863085,0 -10.583187,4.77571 -10.583187,10.707871 v 63.482295 c 0,5.93216 4.720102,10.70788 10.583187,10.70788 h 62.74309 c 5.863085,0 10.583185,-4.77572 10.583185,-10.70788 V 136.1661 H 90.65405 A 47.505586,47.836712 0 0 0 90.70573,135.13922 47.505586,47.836712 0 0 0 43.198701,87.302548 47.505586,47.836712 0 0 0 40.1426,87.411822 V 66.580624 Z m 54.481695,0 a 78.967349,79.517769 0 0 1 18.84458,17.697264 v -6.989393 c 0,-5.932161 -4.7201,-10.707871 -10.583185,-10.707871 z M 42.576004,93.093581 a 41.588482,42.078455 0 0 1 41.588093,42.078589 41.588482,42.078455 0 0 1 -0.0098,0.27135 H 67.836124 a 25.019015,25.313776 0 0 0 0.02739,-0.54324 25.019015,25.313776 0 0 0 -25.019827,-25.31354 25.019015,25.313776 0 0 0 -1.609696,0.0581 V 93.16103 a 41.588482,42.078455 0 0 1 1.342016,-0.06744 z m -5.753056,31.075309 h 2.915543 l 7.244936,19.27887 h -2.673701 l -1.731655,-4.94559 h -8.568864 l -1.731655,4.94559 H 29.56561 Z m 12.923577,0 h 5.805765 c 2.173014,0 3.794707,0.46025 4.864236,1.38136 1.069529,0.9211 1.604014,2.31182 1.604014,4.17125 0,1.21381 -0.280018,2.22093 -0.840247,3.02152 -0.551741,0.80061 -1.358415,1.35588 -2.419456,1.66579 0.551741,0.18939 1.086742,0.59371 1.60453,1.21353 0.526275,0.6198 1.052416,1.47203 1.578694,2.55671 l 2.610138,5.26871 h -2.762584 l -2.432373,-4.94559 c -0.628138,-1.29128 -1.239273,-2.14797 -1.833454,-2.56978 -0.585695,-0.42183 -1.387422,-0.63265 -2.406022,-0.63265 h -2.80134 v 8.14802 h -2.571901 z m 2.571901,2.14366 v 6.84353 h 3.233864 c 1.239297,0 2.173205,-0.28855 2.801341,-0.86532 0.636626,-0.58537 0.954968,-1.44154 0.954968,-2.56926 0,-1.12771 -0.318342,-1.976 -0.954968,-2.54416 -0.628136,-0.57678 -1.562044,-0.86479 -2.801341,-0.86479 z m -14.043907,0.42612 -3.488628,9.59422 h 6.990172 z"
       id="rect10"
       inkscape:connector-curvature="0"
       inkscape:export-filename="/home/tux/Android/Projekts/AnotherRSS/app/src/main/res/drawable/logo_sw.png"
       inkscape:export-xdpi="18.780151"
       inkscape:export-ydpi="18.780151" />
  </g>
</svg>
