<?xml version="1.0" encoding="UTF-8" standalone="no"?>
<svg
   xmlns:dc="http://purl.org/dc/elements/1.1/"
   xmlns:cc="http://creativecommons.org/ns#"
   xmlns:rdf="http://www.w3.org/1999/02/22-rdf-syntax-ns#"
   xmlns:svg="http://www.w3.org/2000/svg"
   xmlns="http://www.w3.org/2000/svg"
   xmlns:sodipodi="http://sodipodi.sourceforge.net/DTD/sodipodi-0.dtd"
   xmlns:inkscape="http://www.inkscape.org/namespaces/inkscape"
   width="106mm"
   height="106mm"
   viewBox="0 0 106 106"
   version="1.1"
   id="svg8"
   sodipodi:docname="ic_launcher.svg"
   inkscape:version="0.92.2 5c3e80d, 2017-08-06">
  <sodipodi:namedview
     pagecolor="#ffffff"
     bordercolor="#666666"
     borderopacity="1"
     objecttolerance="10"
     gridtolerance="10"
     guidetolerance="10"
     inkscape:pageopacity="0"
     inkscape:pageshadow="2"
     inkscape:window-width="1251"
     inkscape:window-height="778"
     id="namedview20"
     showgrid="false"
     inkscape:snap-global="false"
     inkscape:zoom="0.58907233"
     inkscape:cx="200.31496"
     inkscape:cy="200.31496"
     inkscape:window-x="29"
     inkscape:window-y="0"
     inkscape:window-maximized="1"
     inkscape:current-layer="svg8" />
  <defs
     id="defs2" />
  <metadata
     id="metadata5">
    <rdf:RDF>
      <cc:Work
         rdf:about="">
        <dc:format>image/svg+xml</dc:format>
        <dc:type
           rdf:resource="http://purl.org/dc/dcmitype/StillImage" />
        <dc:title></dc:title>
      </cc:Work>
    </rdf:RDF>
  </metadata>
  <path
     style="opacity:1;fill:#4892e2;fill-opacity:1;stroke:none;stroke-width:0.84526134;stroke-miterlimit:4;stroke-dasharray:none"
     d="M 80.095703 69.152344 C 58.592401 69.152344 41.28125 86.463495 41.28125 107.9668 L 41.28125 338.08203 C 41.28125 359.58533 58.592401 376.89844 80.095703 376.89844 L 303.31641 376.89844 C 324.81971 376.89844 342.13086 359.58533 342.13086 338.08203 L 342.13086 107.9668 C 342.13086 86.463495 324.81971 69.152344 303.31641 69.152344 L 80.095703 69.152344 z "
     transform="scale(0.26458334)"
     id="rect10" />
  <path
     id="path4519"
     d="m 46.174122,11.386204 c 3.790482,-1.745284 7.652471,-2.998739 10.76712,-9.392336 0.631428,7.998705 -1.908352,7.272951 -3.151353,10.114825 4.47089,1.861205 6.320676,-5.899248 8.928833,-8.308606 1.066279,8.263767 -1.504512,14.253417 -8.140996,17.700943 z"
     style="fill:#000000;stroke:none;stroke-width:0.21560358px;stroke-linecap:butt;stroke-linejoin:miter;stroke-opacity:1;opacity:1" />
  <path
     id="path16-3"
     d="m 31.518797,40.61905 a 41.533044,40.705693 10.92063 0 0 -1.333904,-0.143081 l -2.448052,15.757383 a 24.985664,24.487942 10.92066 0 1 1.596662,0.19376 24.985664,24.487942 10.92066 0 1 20.924448,28.0693 24.985664,24.487942 10.92066 0 1 -0.107477,0.51524 l 16.099288,2.52487 a 41.533044,40.705693 10.92063 0 0 0.04968,-0.25827 41.533044,40.705693 10.92063 0 0 -34.780728,-46.659185 z"
     style="fill:#000000;fill-opacity:1;stroke:none;stroke-width:0.32718751;stroke-miterlimit:4;stroke-dasharray:none;opacity:1" />
  <path
     id="path16"
     d="m 29.464784,40.510331 a 39.455701,40.35328 6.763591 0 0 -1.268446,-0.125592 l -2.332965,15.634513 a 23.735965,24.275935 6.7635927 0 1 1.518304,0.17261 23.735965,24.275935 6.7635927 0 1 19.889519,27.54509 23.735965,24.275935 6.7635927 0 1 -0.102383,0.51155 l 15.309023,2.30605 a 39.455701,40.35328 6.763591 0 0 0.0474,-0.25634 39.455701,40.35328 6.763591 0 0 -33.060459,-45.787855 z"
     style="fill:#ffffff;fill-opacity:1;stroke:none;stroke-width:0.31751665;stroke-miterlimit:4;stroke-dasharray:none;opacity:1" />
  <path
     id="text4513"
     d="M 108.50195 261.58398 C 103.42717 261.58398 99.440889 263.01787 96.541016 265.88477 C 93.661856 268.75166 92.220703 272.67495 92.220703 277.6543 C 92.220703 281.95464 93.267324 285.31234 95.359375 287.72656 C 97.451426 290.14079 100.83831 291.91325 105.51953 293.04492 L 109.3418 293.94922 C 112.53166 294.72881 114.81923 295.8998 116.20703 297.45898 C 117.61554 299.01817 118.32031 301.18096 118.32031 303.94727 C 118.32031 307.11594 117.34745 309.55359 115.40039 311.26367 C 113.45333 312.97375 110.68693 313.83008 107.10352 313.83008 C 104.74219 313.83008 102.34066 313.38995 99.896484 312.50977 C 97.452305 311.62958 94.955949 310.32116 92.408203 308.58594 L 92.408203 316.43164 C 95.059516 317.61361 97.617139 318.50777 100.08203 319.11133 C 102.56764 319.71488 104.9079 320.01562 107.10352 320.01562 C 112.92398 320.01562 117.3364 318.60761 120.33984 315.79102 C 123.364 312.97442 124.875 308.83802 124.875 303.38086 C 124.875 298.80389 123.75658 295.15741 121.51953 292.44141 C 119.3032 289.70025 115.85505 287.7884 111.17383 286.70703 L 107.38281 285.76367 C 103.94439 284.98408 101.60413 283.96639 100.36133 282.70898 C 99.139239 281.42643 98.529297 279.54045 98.529297 277.05078 C 98.529297 274.08329 99.449478 271.79503 101.29297 270.18555 C 103.15717 268.57606 105.79909 267.77148 109.2168 267.77148 C 111.18457 267.77148 113.22513 268.11006 115.33789 268.78906 C 117.45066 269.46806 119.69804 270.49966 122.08008 271.88281 L 122.08008 264.45117 C 119.71875 263.49554 117.40815 262.7786 115.15039 262.30078 C 112.89263 261.82297 110.67686 261.58398 108.50195 261.58398 z M 148.89258 261.58398 C 143.8178 261.58398 139.83151 263.01787 136.93164 265.88477 C 134.05248 268.75166 132.61328 272.67495 132.61328 277.6543 C 132.61328 281.95464 133.65795 285.31234 135.75 287.72656 C 137.84205 290.14079 141.22893 291.91325 145.91016 293.04492 L 149.73242 293.94922 C 152.92228 294.72881 155.20986 295.8998 156.59766 297.45898 C 158.00617 299.01817 158.71094 301.18096 158.71094 303.94727 C 158.71094 307.11594 157.73807 309.55359 155.79102 311.26367 C 153.84396 312.97375 151.07756 313.83008 147.49414 313.83008 C 145.13282 313.83008 142.73129 313.38995 140.28711 312.50977 C 137.84293 311.62958 135.34657 310.32116 132.79883 308.58594 L 132.79883 316.43164 C 135.45014 317.61361 138.00776 318.50777 140.47266 319.11133 C 142.95826 319.71488 145.29852 320.01562 147.49414 320.01562 C 153.3146 320.01562 157.72703 318.60761 160.73047 315.79102 C 163.75462 312.97442 165.26758 308.83802 165.26758 303.38086 C 165.26758 298.80389 164.14915 295.15741 161.91211 292.44141 C 159.69578 289.70025 156.24568 287.7884 151.56445 286.70703 L 147.77539 285.76367 C 144.33697 284.98408 141.99476 283.96639 140.75195 282.70898 C 139.52986 281.42643 138.91992 279.54045 138.91992 277.05078 C 138.91992 274.08329 139.84206 271.79503 141.68555 270.18555 C 143.54975 268.57606 146.18971 267.77148 149.60742 267.77148 C 151.57519 267.77148 153.61575 268.11006 155.72852 268.78906 C 157.84128 269.46806 160.08866 270.49966 162.4707 271.88281 L 162.4707 264.45117 C 160.10938 263.49554 157.80073 262.7786 155.54297 262.30078 C 153.28521 261.82297 151.06748 261.58398 148.89258 261.58398 z M 50.027344 262.60352 L 50.027344 318.92188 L 56.304688 318.92188 L 56.304688 295.11914 L 63.140625 295.11914 C 65.626231 295.11914 67.582495 295.73649 69.011719 296.96875 C 70.461655 298.20101 71.953538 300.70238 73.486328 304.47461 L 79.419922 318.92188 L 86.162109 318.92188 L 79.792969 303.53125 C 78.508739 300.36258 77.225636 297.87317 75.941406 296.0625 C 74.67789 294.25183 73.37176 293.07084 72.025391 292.51758 C 74.614563 291.61224 76.583318 289.98917 77.929688 287.65039 C 79.296771 285.31161 79.980469 282.37011 79.980469 278.82422 C 79.980469 273.39221 78.674339 269.32953 76.064453 266.63867 C 73.454567 263.94781 69.497938 262.60352 64.195312 262.60352 L 50.027344 262.60352 z M 56.304688 268.86523 L 64.195312 268.86523 C 67.219466 268.86523 69.49846 269.70765 71.03125 271.39258 C 72.584754 273.05236 73.361328 275.5298 73.361328 278.82422 C 73.361328 282.11863 72.584754 284.62 71.03125 286.33008 C 69.49846 288.01501 67.219466 288.85742 64.195312 288.85742 L 56.304688 288.85742 L 56.304688 268.86523 z "
     style="font-style:normal;font-weight:normal;font-size:18.55080032px;line-height:1.25;font-family:sans-serif;text-align:center;letter-spacing:0px;word-spacing:0px;text-anchor:middle;fill:#000000;fill-opacity:1;stroke:none;stroke-width:1.75283134;opacity:1"
     transform="scale(0.26458334)" />
  <path
     style="fill:#00ffff;fill-opacity:1;stroke:none;stroke-width:0.60145885;stroke-miterlimit:4;stroke-dasharray:none;opacity:1"
     d="M 54.918878,2.8502083 C 52.272925,8.2816933 49.087784,10.002524 45.865167,11.467771 39.71947,9.7897519 33.204653,8.8923056 26.406922,8.892217 c -0.806286,0.02752 -1.611917,0.067937 -2.416907,0.1219562 -11.209436,3.0301418 -19.9117721,16.5680758 0,29.8756968 0.965118,-0.06664 1.932235,-0.101629 2.899565,-0.104904 6.947223,-1.48e-4 13.838982,1.657181 20.165693,4.597654 3.770482,1.75241 -11.778097,12.522372 -8.70386,15.328263 2.229,2.03445 9.892985,-0.640228 11.597224,-5.193999 2.918066,-7.797144 -5.906799,15.771461 -3.935677,15.424383 1.684343,-0.296571 12.435248,-2.768891 12.110371,-12.490712 -0.112233,-3.358629 5.897568,-0.573871 6.561876,0.19172 6.919542,7.974491 11.277246,17.997363 11.277346,28.753285 9.218272,-0.243049 27.081097,2.674615 22.805328,-1.337387 1.42e-4,-30.052111 -15.778298,-55.480862 -39.84563,-67.587607 1.812428,-3.174615 2.378679,-7.1283621 1.77405,-11.8142664 -2.608154,2.409357 -4.457763,10.1697424 -8.928653,8.3085374 1.242999,-2.841874 3.782658,-2.115922 3.15123,-10.1146287 z"
     id="path16-6"
     inkscape:connector-curvature="0" />
  <path
     style="opacity:1;fill:#ff6600;fill-opacity:1;stroke:none;stroke-width:3.72745633;stroke-miterlimit:4;stroke-dasharray:none;stroke-dashoffset:0;stroke-opacity:1"
     d="M 158.72656 83.263672 A 27.533221 24.897054 0 0 0 131.19336 108.16016 A 27.533221 24.897054 0 0 0 158.72656 133.05859 A 27.533221 24.897054 0 0 0 186.25977 108.16016 A 27.533221 24.897054 0 0 0 158.72656 83.263672 z "
     transform="scale(0.26458334)"
     id="path4551" />
  <path
     id="text4559"
     transform="scale(0.26458334)"
     d="M 111.37891 338.97656 L 111.37891 345.18359 L 126.67383 345.18359 L 126.67383 393.49023 L 132.5332 393.49023 L 132.5332 345.18359 L 147.82812 345.18359 L 147.82812 338.97656 L 111.37891 338.97656 z M 149.64648 338.97656 L 160.44141 393.49023 L 167.77148 393.49023 L 176.94922 346.16992 L 186.03906 393.49023 L 193.37109 393.49023 L 204.19336 338.97656 L 198.27734 338.97656 L 189.24414 385.05469 L 180.18164 338.97656 L 173.63086 338.97656 L 164.5957 385.05469 L 155.53516 338.97656 L 149.64648 338.97656 z M 211.89844 338.97656 L 211.89844 393.49023 L 239.66211 393.49023 L 239.66211 387.2832 L 217.72852 387.2832 L 217.72852 367.5293 L 238.24805 367.5293 L 238.24805 361.32227 L 217.72852 361.32227 L 217.72852 345.18359 L 239.14258 345.18359 L 239.14258 338.97656 L 211.89844 338.97656 z M 249.30078 338.97656 L 249.30078 393.49023 L 277.06445 393.49023 L 277.06445 387.2832 L 255.13086 387.2832 L 255.13086 367.5293 L 275.65039 367.5293 L 275.65039 361.32227 L 255.13086 361.32227 L 255.13086 345.18359 L 276.54492 345.18359 L 276.54492 338.97656 L 249.30078 338.97656 z M 280.73047 338.97656 L 280.73047 345.18359 L 296.02734 345.18359 L 296.02734 393.49023 L 301.88477 393.49023 L 301.88477 345.18359 L 317.18164 345.18359 L 317.18164 338.97656 L 280.73047 338.97656 z "
     style="font-style:normal;font-weight:normal;font-size:17.5899868px;line-height:1.25;font-family:sans-serif;letter-spacing:0px;word-spacing:0px;fill:#000000;fill-opacity:1;stroke:none;stroke-width:1.66204596;opacity:1" />
  <path
     id="text4513-7"
     d="m 27.903724,68.567392 c -1.342702,0 -2.397923,0.379383 -3.165181,1.137914 -0.761778,0.758534 -1.142566,1.796572 -1.142566,3.114025 0,1.137798 0.276918,2.026187 0.83044,2.664952 0.553522,0.638765 1.449634,1.107728 2.688208,1.407149 l 1.010791,0.239779 c 0.843984,0.206269 1.449755,0.515575 1.816944,0.928108 0.372668,0.412536 0.559138,0.984774 0.559138,1.716691 0,0.83838 -0.257921,1.48386 -0.773078,1.936316 -0.515159,0.452459 -1.246587,0.678513 -2.1947,0.678513 -0.624766,0 -1.260687,-0.116451 -1.907376,-0.349334 -0.646689,-0.232881 -1.307184,-0.579067 -1.981275,-1.038178 v 2.076358 c 0.701493,0.312729 1.378715,0.548793 2.030884,0.708485 0.65765,0.159689 1.276843,0.23926 1.857767,0.23926 1.539997,0 2.707452,-0.372536 3.502112,-1.117759 0.80014,-0.745225 1.199928,-1.839648 1.199928,-3.283521 0,-1.21099 -0.295918,-2.175788 -0.887801,-2.894396 -0.586404,-0.725266 -1.498727,-1.231109 -2.7373,-1.517222 l -1.003041,-0.249081 c -0.909748,-0.206267 -1.528943,-0.476047 -1.857767,-0.808736 -0.323345,-0.339342 -0.485242,-0.838341 -0.485242,-1.497066 0,-0.785148 0.243981,-1.390584 0.731738,-1.816425 0.493237,-0.425844 1.192245,-0.638723 2.096512,-0.638723 0.520642,0 1.060021,0.08958 1.619025,0.269235 0.559001,0.179652 1.15362,0.452596 1.783868,0.818555 V 69.326002 C 30.870986,69.073159 30.260156,68.883468 29.66279,68.757045 29.065425,68.630622 28.479169,68.567392 27.903724,68.567392 Z m 10.686688,0 c -1.342702,0 -2.397924,0.379383 -3.165184,1.137914 -0.761775,0.758534 -1.142564,1.796572 -1.142564,3.114025 0,1.137798 0.276919,2.026187 0.83044,2.664952 0.553522,0.638765 1.449634,1.107728 2.688207,1.407149 l 1.010793,0.239779 c 0.843983,0.206269 1.449755,0.515575 1.816941,0.928108 0.372668,0.412536 0.559141,0.984774 0.559141,1.716691 0,0.83838 -0.257405,1.48386 -0.772565,1.936316 -0.515157,0.452459 -1.247103,0.678513 -2.195213,0.678513 -0.624769,0 -1.260689,-0.116451 -1.907379,-0.349334 -0.646689,-0.232881 -1.306666,-0.579067 -1.980755,-1.038178 v 2.076358 c 0.701492,0.312729 1.378196,0.548793 2.030365,0.708485 0.657651,0.159689 1.276844,0.23926 1.857769,0.23926 1.539997,0 2.707452,-0.372536 3.502112,-1.117759 0.80014,-0.745225 1.199925,-1.839648 1.199925,-3.283521 0,-1.21099 -0.295915,-2.175788 -0.887801,-2.894396 -0.586404,-0.725266 -1.498727,-1.231109 -2.7373,-1.517222 l -1.003038,-0.249081 c -0.909751,-0.206267 -1.528945,-0.476047 -1.857769,-0.808736 -0.323345,-0.339342 -0.484725,-0.838341 -0.484725,-1.497066 0,-0.785148 0.243464,-1.390584 0.731221,-1.816425 0.493239,-0.425844 1.192244,-0.638723 2.096514,-0.638723 0.520639,0 1.060537,0.08958 1.619538,0.269235 0.559004,0.179652 1.153623,0.452596 1.783871,0.818555 V 69.326002 C 41.55819,69.073159 40.946841,68.883468 40.349476,68.757045 39.75211,68.630622 39.165854,68.567392 38.590412,68.567392 Z m -26.158095,0.269753 v 14.900897 h 1.66088 v -6.297806 h 1.808159 c 0.65765,0 1.175761,0.163341 1.55391,0.489376 0.383629,0.326036 0.778356,0.987857 1.183907,1.985926 l 1.56993,3.822504 h 1.783871 L 20.307805,79.66594 c -0.339785,-0.838377 -0.67979,-1.497033 -1.019576,-1.976106 -0.334305,-0.479073 -0.679369,-0.791544 -1.035596,-0.937927 0.685052,-0.239538 1.205435,-0.668975 1.561662,-1.287777 0.361708,-0.618803 0.542603,-1.397075 0.542603,-2.335258 0,-1.437219 -0.345063,-2.512137 -1.035596,-3.224094 -0.690532,-0.711956 -1.73739,-1.067633 -3.140377,-1.067633 z m 1.66088,1.656744 h 2.087728 c 0.800141,0 1.403125,0.22289 1.808676,0.668695 0.411031,0.43915 0.616499,1.094639 0.616499,1.966288 0,0.871646 -0.205468,1.533467 -0.616499,1.985925 -0.405551,0.445805 -1.008535,0.668693 -1.808676,0.668693 h -2.087728 z"
     style="font-style:normal;font-weight:normal;font-size:18.55080032px;line-height:1.25;font-family:sans-serif;text-align:center;letter-spacing:0px;word-spacing:0px;text-anchor:middle;fill:#ffffff;fill-opacity:1;stroke:none;stroke-width:0.28978148;stroke-miterlimit:4;stroke-dasharray:none;stroke-opacity:1;opacity:1" />
  <path
     id="text4559-3"
     d="m 28.862322,89.214192 v 1.642277 h 4.047297 v 12.781111 h 1.549776 V 90.856469 h 4.0473 v -1.642277 z m 10.12548,0 2.85564,14.423388 h 1.939418 l 2.428274,-12.52066 2.405539,12.52066 h 1.939414 L 53.41948,89.214192 H 51.854202 L 49.464165,101.40567 47.066378,89.214192 H 45.333151 L 42.943117,101.40567 40.54533,89.214192 Z m 16.470829,0 v 14.423388 h 7.345805 v -1.6428 h -5.803779 v -5.226009 h 5.429126 v -1.642279 h -5.429126 v -4.270023 h 5.66632 v -1.642277 z m 9.896039,0 v 14.423388 h 7.345804 v -1.6428 h -5.803265 v -5.226009 h 5.429129 v -1.642279 h -5.429129 v -4.270023 h 5.665807 v -1.642277 z m 8.315254,0 v 1.642277 h 4.047299 v 12.781111 h 1.550292 V 90.856469 h 4.046781 v -1.642277 z"
     style="font-style:normal;font-weight:normal;font-size:17.5899868px;line-height:1.25;font-family:sans-serif;letter-spacing:0px;word-spacing:0px;fill:#ffffff;fill-opacity:1;stroke:none;stroke-width:0.28978148;stroke-miterlimit:4;stroke-dasharray:none;stroke-opacity:1;opacity:1" />
  <path
     id="text4513-6"
     transform="scale(0.26458334)"
     d="M 78.927734 336.20312 C 73.924787 336.20312 70.002202 337.64531 67.158203 340.53125 C 64.334963 343.41719 62.921875 347.41365 62.921875 352.51953 C 62.921875 357.60692 64.334963 361.60142 67.158203 364.50586 C 70.002202 367.39179 73.924787 368.83594 78.927734 368.83594 C 83.909922 368.83594 87.82397 367.39179 90.667969 364.50586 C 93.511968 361.60142 94.933594 357.60692 94.933594 352.51953 C 94.933594 347.41365 93.511968 343.41719 90.667969 340.53125 C 87.82397 337.64531 83.909922 336.20312 78.927734 336.20312 z M 78.927734 340.53125 C 81.979325 340.53125 84.39831 341.61289 86.183594 343.77734 C 87.968878 345.9233 88.861328 348.83811 88.861328 352.51953 C 88.861328 356.21945 87.968878 359.14116 86.183594 361.28711 C 84.39831 363.43306 81.979325 364.50586 78.927734 364.50586 C 75.834626 364.50586 73.396612 363.44191 71.611328 361.31445 C 69.846803 359.1685 68.962891 356.23795 68.962891 352.51953 C 68.962891 348.80111 69.855341 345.87745 71.640625 343.75 C 73.425909 341.60405 75.855385 340.53125 78.927734 340.53125 z "
     style="font-style:normal;font-weight:normal;font-size:15.92828941px;line-height:1.25;font-family:sans-serif;text-align:center;letter-spacing:0px;word-spacing:0px;text-anchor:middle;fill:#000000;fill-opacity:1;stroke:none;stroke-width:1.50503492;opacity:1" />
  <path
     id="text4513-7-9"
     d="m 20.60598,88.480389 c -1.323697,0 -2.361547,0.381579 -3.114022,1.145151 -0.746982,0.763569 -1.120345,1.820966 -1.120345,3.171899 0,1.346036 0.373363,2.403436 1.120345,3.171899 0.752475,0.763572 1.790325,1.145151 3.114022,1.145151 1.318204,0 2.353796,-0.381579 3.10627,-1.145151 0.752475,-0.768463 1.128614,-1.825863 1.128614,-3.171899 0,-1.350933 -0.376139,-2.40833 -1.128614,-3.171899 -0.752474,-0.763572 -1.788066,-1.145151 -3.10627,-1.145151 z m 0,1.145151 c 0.8074,0 1.447423,0.2867 1.919779,0.859377 0.472357,0.567786 0.708484,1.33848 0.708484,2.312522 0,0.978937 -0.236127,1.752489 -0.708484,2.320272 -0.472356,0.567782 -1.112379,0.851627 -1.919779,0.851627 -0.818385,0 -1.463443,-0.281503 -1.935799,-0.844394 -0.466864,-0.567782 -0.700216,-1.343673 -0.700216,-2.327505 0,-0.983832 0.236127,-1.757384 0.708484,-2.320271 0.472356,-0.567783 1.114638,-0.851628 1.927531,-0.851628 z"
     style="font-style:normal;font-weight:normal;font-size:15.92828941px;line-height:1.25;font-family:sans-serif;text-align:center;letter-spacing:0px;word-spacing:0px;text-anchor:middle;fill:#ffffff;fill-opacity:1;stroke:none;stroke-width:0.24881527;stroke-miterlimit:4;stroke-dasharray:none;stroke-opacity:1;opacity:1" />
  <path
     style="opacity:1;fill:#000000;fill-opacity:1;stroke:none;stroke-width:1.71807218;stroke-miterlimit:4;stroke-dasharray:none;stroke-dashoffset:0;stroke-opacity:1"
     d="M 156.04883 106.84961 A 13.128739 11.092761 0 0 0 142.91992 117.94141 A 13.128739 11.092761 0 0 0 156.04883 129.03516 A 13.128739 11.092761 0 0 0 169.17773 117.94141 A 13.128739 11.092761 0 0 0 156.04883 106.84961 z "
     transform="scale(0.26458334)"
     id="path4551-3" />
</svg>
