<?xml version="1.0" encoding="UTF-8" standalone="no"?>
<!-- Created with Inkscape (http://www.inkscape.org/) -->

<svg
   xmlns:dc="http://purl.org/dc/elements/1.1/"
   xmlns:cc="http://creativecommons.org/ns#"
   xmlns:rdf="http://www.w3.org/1999/02/22-rdf-syntax-ns#"
   xmlns:svg="http://www.w3.org/2000/svg"
   xmlns="http://www.w3.org/2000/svg"
   xmlns:sodipodi="http://sodipodi.sourceforge.net/DTD/sodipodi-0.dtd"
   xmlns:inkscape="http://www.inkscape.org/namespaces/inkscape"
   width="106mm"
   height="106mm"
   viewBox="0 0 106 106"
   version="1.1"
   id="svg8"
   inkscape:version="0.92.2 5c3e80d, 2017-08-06"
   sodipodi:docname="Icon_sw.svg"
   inkscape:export-filename="/home/tux/Android/Projekts/AnotherRSS/app/src/main/res/drawable/logo_sw.png"
   inkscape:export-xdpi="17.252831"
   inkscape:export-ydpi="17.252831">
  <defs
     id="defs2" />
  <sodipodi:namedview
     id="base"
     pagecolor="#ffffff"
     bordercolor="#666666"
     borderopacity="1.0"
     inkscape:pageopacity="0.0"
     inkscape:pageshadow="2"
     inkscape:zoom="0.7"
     inkscape:cx="-100.20987"
     inkscape:cy="101.60663"
     inkscape:document-units="mm"
     inkscape:current-layer="layer1"
     showgrid="false"
     inkscape:snap-global="false"
     inkscape:window-width="1280"
     inkscape:window-height="751"
     inkscape:window-x="0"
     inkscape:window-y="0"
     inkscape:window-maximized="1"
     fit-margin-top="0"
     fit-margin-left="0"
     fit-margin-right="0"
     fit-margin-bottom="0" />
  <metadata
     id="metadata5">
    <rdf:RDF>
      <cc:Work
         rdf:about="">
        <dc:format>image/svg+xml</dc:format>
        <dc:type
           rdf:resource="http://purl.org/dc/dcmitype/StillImage" />
        <dc:title></dc:title>
      </cc:Work>
    </rdf:RDF>
  </metadata>
  <g
     inkscape:label="Ebene 1"
     inkscape:groupmode="layer"
     id="layer1"
     transform="translate(-26.080089,-45.478611)">
    <path
       style="fill:#e6e6e6;fill-opacity:1;stroke:none;stroke-width:0.2149711;stroke-miterlimit:4;stroke-dasharray:none"
       d="m 78.318642,49.425702 -5.665103,11.9451 c -6.644931,-2.037306 -13.692984,-3.13719 -20.99601,-3.137251 -0.777596,0.02638 -1.554754,0.06551 -2.331104,0.117267 -16.133735,10.656664 -10.336669,19.794703 0,28.618392 0.930807,-0.0638 1.863441,-0.09706 2.796378,-0.100176 24.006691,-4.86e-4 43.467951,19.676136 43.468229,43.948576 -0.01225,0.31462 -0.02786,0.62906 -0.04681,0.94336 h 28.351048 c 0.006,-0.15723 0.0115,-0.31466 0.0166,-0.47192 6e-5,-28.03639 -15.62261,-52.379523 -38.544068,-64.627462 3.256817,-4.331906 2.274256,-10.082677 0.213723,-16.194252 -0.392505,6.735697 -3.097643,8.82784 -6.225417,10.070728 0.995803,-4.153116 0.733061,-7.885098 -1.037413,-11.112362 z M 62.409451,63.662971 c 3.629163,3.6e-5 6.571139,2.798608 6.571062,6.250762 8e-5,3.452153 -2.941896,6.250728 -6.571062,6.250765 -3.629167,-3.4e-5 -6.571146,-2.798609 -6.571066,-6.250765 -7.7e-5,-3.452154 2.941899,-6.250728 6.571066,-6.250762 z M 41.313265,82.896332 C 37.91082,78.731706 34.337429,67.175192 34.396282,77.454637 l 0.34585,60.406593 c 0.0312,5.44994 4.319038,9.83762 9.683773,9.83762 h 57.409935 c 5.36474,0 9.68377,-4.38759 9.68377,-9.83762 v -4.23064 H 93.480746 c 0.0191,-0.31429 0.03487,-0.62872 0.04729,-0.94336 -2e-5,-24.27281 -19.461642,-43.949305 -43.468703,-43.948568 -0.932937,0.0031 -1.865571,0.03637 -2.796379,0.100175 L 44.150308,86.368904 Z M 94.276537,69.700564 c 6.589313,4.428564 12.414703,9.921663 17.243073,16.259295 V 79.53818 c 0,-5.450037 -4.31903,-9.837616 -9.68377,-9.837616 z M 49.489556,94.058885 c 21.016304,1.99e-4 38.052853,17.308255 38.052786,38.658735 -0.0028,0.0831 -0.0052,0.16616 -0.0085,0.24925 h -14.9314 c 0.01011,-0.16627 0.01847,-0.33254 0.02506,-0.49898 -1.18e-4,-12.8444 -10.249686,-23.2568 -22.893047,-23.25639 -0.491395,0.002 -0.982632,0.0198 -1.4729,0.0537 V 94.121079 c 0.408963,-0.02737 0.818353,-0.04826 1.227968,-0.06219 z"
       id="rect10"
       inkscape:connector-curvature="0"
       sodipodi:nodetypes="cccccccccccccccccccssssssccccccsccsscccccccccc" />
  </g>
</svg>
