<?xml version="1.0" encoding="UTF-8" standalone="no"?>
<!-- Created with Inkscape (http://www.inkscape.org/) -->

<svg
   xmlns:dc="http://purl.org/dc/elements/1.1/"
   xmlns:cc="http://creativecommons.org/ns#"
   xmlns:rdf="http://www.w3.org/1999/02/22-rdf-syntax-ns#"
   xmlns:svg="http://www.w3.org/2000/svg"
   xmlns="http://www.w3.org/2000/svg"
   xmlns:sodipodi="http://sodipodi.sourceforge.net/DTD/sodipodi-0.dtd"
   xmlns:inkscape="http://www.inkscape.org/namespaces/inkscape"
   width="210mm"
   height="297mm"
   viewBox="0 0 210 297"
   version="1.1"
   id="svg8"
   inkscape:version="0.92.1 r"
   sodipodi:docname="Icon.svg">
  <defs
     id="defs2" />
  <sodipodi:namedview
     id="base"
     pagecolor="#ffffff"
     bordercolor="#666666"
     borderopacity="1.0"
     inkscape:pageopacity="0.0"
     inkscape:pageshadow="2"
     inkscape:zoom="0.7"
     inkscape:cx="298.42153"
     inkscape:cy="651.60874"
     inkscape:document-units="mm"
     inkscape:current-layer="layer1"
     showgrid="false"
     inkscape:snap-global="false"
     inkscape:window-width="1247"
     inkscape:window-height="780"
     inkscape:window-x="33"
     inkscape:window-y="0"
     inkscape:window-maximized="1" />
  <metadata
     id="metadata5">
    <rdf:RDF>
      <cc:Work
         rdf:about="">
        <dc:format>image/svg+xml</dc:format>
        <dc:type
           rdf:resource="http://purl.org/dc/dcmitype/StillImage" />
        <dc:title />
      </cc:Work>
    </rdf:RDF>
  </metadata>
  <g
     inkscape:label="Ebene 1"
     inkscape:groupmode="layer"
     id="layer1">
    <rect
       style="opacity:0.9;fill:#ff6600;fill-opacity:1;stroke:#000000;stroke-width:0.23152836;stroke-miterlimit:4;stroke-dasharray:none"
       id="rect10"
       width="82.601341"
       height="84.096771"
       x="24.946411"
       y="67.005981"
       ry="10.606799" />
    <text
       xml:space="preserve"
       style="font-style:normal;font-weight:normal;font-size:25.93135643px;line-height:1.25;font-family:sans-serif;letter-spacing:0px;word-spacing:0px;fill:#ffffff;fill-opacity:1;stroke:#000000;stroke-width:2.9331162;stroke-miterlimit:4;stroke-dasharray:none"
       x="29.401489"
       y="140.28"
       id="text14-7"
       transform="scale(0.98990578,1.0101972)"><tspan
         sodipodi:role="line"
         id="tspan12-5"
         x="29.401489"
         y="140.28"
         style="fill:#ffffff;stroke:#000000;stroke-width:2.9331162;stroke-miterlimit:4;stroke-dasharray:none">AR</tspan></text>
    <text
       xml:space="preserve"
       style="font-style:normal;font-weight:normal;font-size:25.93135643px;line-height:1.25;font-family:sans-serif;letter-spacing:0px;word-spacing:0px;fill:#ffffff;fill-opacity:1;stroke:none;stroke-width:0.6482839"
       x="28.463276"
       y="140.57771"
       id="text14"
       transform="scale(0.98990578,1.0101972)"><tspan
         sodipodi:role="line"
         id="tspan12"
         x="28.463276"
         y="140.57771"
         style="fill:#ffffff;stroke-width:0.6482839">AR</tspan></text>
    <path
       style="fill:#ffffff;fill-opacity:1;stroke:#000000;stroke-width:0.62266809;stroke-miterlimit:4;stroke-dasharray:none"
       d="m 42.413129,55.900916 a 77.736209,78.76721 0 0 0 -2.508211,0.126324 v 30.856189 a 46.76495,47.385186 0 0 1 3.008753,-0.108337 46.76495,47.385186 0 0 1 46.765936,47.384778 46.76495,47.385186 0 0 1 -0.05075,1.01717 h 30.501653 a 77.736209,78.76721 0 0 0 0.0178,-0.50858 77.736209,78.76721 0 0 0 -77.735211,-78.767606 z"
       id="path16-6"
       inkscape:connector-curvature="0" />
    <text
       xml:space="preserve"
       style="font-style:normal;font-weight:normal;font-size:10.51207066px;line-height:1.25;font-family:sans-serif;letter-spacing:0px;word-spacing:0px;fill:#ffffff;fill-opacity:1;stroke:none;stroke-width:0.26280174"
       x="66.618805"
       y="141.04323"
       id="text880"
       transform="scale(0.99106902,1.0090115)"><tspan
         sodipodi:role="line"
         id="tspan878"
         x="66.618805"
         y="141.04323"
         style="fill:#ffffff;stroke-width:0.26280174">ss</tspan></text>
    <path
       style="fill:#000000;fill-opacity:1;stroke:#000000;stroke-width:0.33872512;stroke-miterlimit:4;stroke-dasharray:none"
       d="m 40.93105,92.251064 a 43.093204,42.047629 0 0 0 -1.390431,0.06747 v 16.471686 a 25.924233,25.295231 0 0 1 1.667909,-0.0578 25.924233,25.295231 0 0 1 25.924777,25.29501 25.924233,25.295231 0 0 1 -0.02812,0.54299 h 16.908651 a 43.093204,42.047629 0 0 0 0.0098,-0.2715 43.093204,42.047629 0 0 0 -43.092662,-42.047826 z"
       id="path16-3"
       inkscape:connector-curvature="0" />
    <path
       style="fill:#ffffff;fill-opacity:1;stroke:#000000;stroke-width:0.32871327;stroke-miterlimit:4;stroke-dasharray:none"
       d="m 41.184288,92.511146 a 40.940099,41.681284 0 0 0 -1.32096,0.06688 V 108.9062 a 24.628957,25.074843 0 0 1 1.584573,-0.0573 24.628957,25.074843 0 0 1 24.629475,25.07463 24.628957,25.074843 0 0 1 -0.02673,0.53826 h 16.063832 a 40.940099,41.681284 0 0 0 0.0094,-0.26912 40.940099,41.681284 0 0 0 -40.939585,-41.681498 z"
       id="path16"
       inkscape:connector-curvature="0" />
  </g>
</svg>
