<?xml version="1.0" encoding="UTF-8" standalone="no"?>
<svg
   xmlns:dc="http://purl.org/dc/elements/1.1/"
   xmlns:cc="http://creativecommons.org/ns#"
   xmlns:rdf="http://www.w3.org/1999/02/22-rdf-syntax-ns#"
   xmlns:svg="http://www.w3.org/2000/svg"
   xmlns="http://www.w3.org/2000/svg"
   id="svg8"
   version="1.1"
   viewBox="0 0 135.46667 135.46666"
   height="512"
   width="512">
  <defs
     id="defs2" />
  <metadata
     id="metadata5">
    <rdf:RDF>
      <cc:Work
         rdf:about="">
        <dc:format>image/svg+xml</dc:format>
        <dc:type
           rdf:resource="http://purl.org/dc/dcmitype/StillImage" />
        <dc:title></dc:title>
      </cc:Work>
    </rdf:RDF>
  </metadata>
  <g
     transform="translate(-24.830647,-15.751854)"
     id="layer1">
    <path
       id="rect10"
       transform="matrix(0.26458333,0,0,0.26458333,24.830647,15.751854)"
       d="M 67.638672 70.324219 C 37.616921 70.324219 13.449219 94.491921 13.449219 124.51367 L 13.449219 445.78906 C 13.449219 475.81081 37.616921 499.98047 67.638672 499.98047 L 381.27344 499.98047 C 411.29519 499.98047 435.46484 475.81081 435.46484 445.78906 L 435.46484 124.51367 C 435.46484 94.491921 411.29519 70.324219 381.27344 70.324219 L 67.638672 70.324219 z "
       style="opacity:1;fill:#ff7a21;fill-opacity:1;stroke:#000000;stroke-width:1.18289471;stroke-miterlimit:4;stroke-dasharray:none" />
    <path
       id="text14-7"
       d="m 43.938445,109.52744 -9.657439,25.81418 h 3.608703 l 2.304514,-6.62225 h 11.402415 l 2.304514,6.62225 h 3.558409 l -9.640676,-25.81418 z m 17.197577,0 v 25.81418 h 3.422192 v -10.90994 h 3.727459 c 1.355449,0 2.423463,0.28252 3.202848,0.84734 0.790676,0.56482 1.60347,1.71131 2.439332,3.44035 l 3.236379,6.62225 h 3.676461 l -3.473183,-7.05395 c -0.700318,-1.45239 -1.400922,-2.59365 -2.101236,-3.42359 -0.689023,-0.82994 -1.400563,-1.37193 -2.134765,-1.62552 1.411926,-0.41497 2.485409,-1.15846 3.219611,-2.23047 0.745497,-1.07201 1.117678,-2.4207 1.117678,-4.046 0,-2.48982 -0.711544,-4.35151 -2.134766,-5.58489 -1.423221,-1.23339 -3.58043,-1.84976 -6.472055,-1.84976 z m 3.422192,2.87034 h 4.303763 c 1.649128,0 2.891597,0.38588 3.727456,1.15819 0.847157,0.76078 1.270662,1.8961 1.270662,3.40612 0,1.51004 -0.423505,2.65722 -1.270662,3.44106 -0.835859,0.77231 -2.078328,1.15819 -3.727456,1.15819 h -4.303763 z m -18.688281,0.57001 4.659321,12.84702 h -9.301181 z"
       style="font-style:normal;font-weight:normal;font-size:25.93135643px;line-height:1.25;font-family:sans-serif;letter-spacing:0px;word-spacing:0px;fill:#ffffff;fill-opacity:1;stroke:#000000;stroke-width:3.96491265;stroke-miterlimit:4;stroke-dasharray:none" />
    <path
       id="text14"
       d="m 42.683151,109.93399 -9.657439,25.81419 h 3.608703 l 2.304514,-6.62225 h 11.402416 l 2.304513,6.62225 h 3.557712 l -9.640676,-25.81419 z m 17.197582,0 v 25.81419 h 3.422191 v -10.90995 h 3.727455 c 1.355449,0 2.422766,0.28252 3.202151,0.84735 0.79068,0.56481 1.604171,1.7113 2.440029,3.44035 l 3.236379,6.62225 h 3.676464 l -3.473185,-7.05396 c -0.700316,-1.45238 -1.400923,-2.59363 -2.101237,-3.42358 -0.689019,-0.82994 -1.400563,-1.37193 -2.134765,-1.62553 1.411926,-0.41496 2.484711,-1.15845 3.218914,-2.23047 0.745497,-1.07201 1.118376,-2.42069 1.118376,-4.04599 0,-2.48982 -0.711542,-4.35151 -2.134766,-5.5849 -1.423222,-1.23339 -3.58043,-1.84976 -6.472056,-1.84976 z m 3.422191,2.87034 h 4.303759 c 1.649131,0 2.891596,0.38589 3.72746,1.1582 0.847153,0.76078 1.270659,1.89609 1.270659,3.40612 0,1.51002 -0.423506,2.65722 -1.270659,3.44105 -0.835864,0.77231 -2.078329,1.1582 -3.72746,1.1582 h -4.303759 z m -18.688285,0.57001 4.659324,12.84703 h -9.301877 z"
       style="font-style:normal;font-weight:normal;font-size:25.93135643px;line-height:1.25;font-family:sans-serif;letter-spacing:0px;word-spacing:0px;fill:#ffffff;fill-opacity:1;stroke:none;stroke-width:0.87633389" />
    <path
       id="path16-6"
       d="m 51.99999,19.346769 a 105.08185,106.47554 0 0 0 -3.390536,0.170761 v 41.710621 a 63.215685,64.054104 0 0 1 4.067157,-0.146447 63.215685,64.054104 0 0 1 63.217019,64.053556 63.215685,64.054104 0 0 1 -0.0686,1.37498 h 41.23137 a 105.08185,106.47554 0 0 0 0.0241,-0.68748 A 105.08185,106.47554 0 0 0 51.99995,19.346685 Z"
       style="fill:#ffffff;fill-opacity:1;stroke:#000000;stroke-width:0.84170705;stroke-miterlimit:4;stroke-dasharray:none" />
    <path
       id="text880"
       d="m 87.691364,128.1277 c -0.944372,0 -1.673012,0.20076 -2.186458,0.60215 -0.513445,0.40139 -0.7705,0.97122 -0.7705,1.70865 0,0.60675 0.174107,1.08477 0.522515,1.43482 0.348408,0.34538 0.914951,0.60248 1.698871,0.7705 l 0.440087,0.10479 c 0.78392,0.17269 1.290126,0.35258 1.519341,0.53927 0.233804,0.1867 0.351373,0.45468 0.351373,0.80473 0,0.37805 -0.161096,0.67224 -0.482,0.88227 -0.320904,0.20536 -0.77878,0.30806 -1.374744,0.30806 -0.444679,0 -0.89435,-0.0603 -1.348199,-0.18162 -0.453849,-0.12602 -0.914129,-0.31287 -1.38173,-0.56024 v 1.33004 c 0.495105,0.16335 0.964991,0.2846 1.40967,0.36394 0.449264,0.084 0.879729,0.12644 1.292319,0.12644 0.990213,0 1.767183,-0.21305 2.331055,-0.63777 0.568456,-0.42473 0.85293,-1.00081 0.85293,-1.72891 0,-0.63943 -0.190217,-1.13669 -0.570714,-1.49141 -0.375915,-0.35938 -1.013403,-0.63664 -1.911931,-0.83267 l -0.433098,-0.0985 c -0.678482,-0.15402 -1.129856,-0.31468 -1.354486,-0.4827 -0.224634,-0.17269 -0.336702,-0.40822 -0.336702,-0.70693 0,-0.39205 0.155595,-0.68624 0.467329,-0.88227 0.316319,-0.19602 0.788605,-0.29409 1.416658,-0.29409 0.41259,0 0.811531,0.0464 1.196613,0.13971 0.385083,0.0934 0.755912,0.23384 1.113487,0.42053 v -1.21827 c -0.348408,-0.14002 -0.728841,-0.24504 -1.141427,-0.31505 -0.412589,-0.07 -0.852658,-0.10548 -1.320259,-0.10548 z m 7.344546,0 c -0.944372,0 -1.673714,0.20076 -2.187159,0.60215 -0.513445,0.40139 -0.7698,0.97122 -0.7698,1.70865 0,0.60675 0.174104,1.08477 0.522516,1.43482 0.348408,0.34538 0.91425,0.60248 1.69817,0.7705 l 0.440086,0.10479 c 0.78392,0.17269 1.290828,0.35258 1.520043,0.53927 0.2338,0.1867 0.350672,0.45468 0.350672,0.80473 0,0.37805 -0.160398,0.67224 -0.481299,0.88227 -0.320904,0.20536 -0.779482,0.30806 -1.375446,0.30806 -0.444678,0 -0.893652,-0.0603 -1.347498,-0.18162 -0.453849,-0.12602 -0.914829,-0.31287 -1.38243,-0.56024 v 1.33004 c 0.495108,0.16335 0.964994,0.2846 1.409673,0.36394 0.449264,0.084 0.880423,0.12644 1.293013,0.12644 0.990213,0 1.767187,-0.21305 2.331058,-0.63777 0.568457,-0.42473 0.852229,-1.00081 0.852229,-1.72891 0,-0.63943 -0.190216,-1.13669 -0.570713,-1.49141 -0.375916,-0.35938 -1.012703,-0.63664 -1.91123,-0.83267 l -0.433101,-0.0985 c -0.67848,-0.15402 -1.130555,-0.31468 -1.355185,-0.4827 -0.224633,-0.17269 -0.336702,-0.40822 -0.336702,-0.70693 0,-0.39205 0.155595,-0.68624 0.467329,-0.88227 0.31632,-0.19602 0.788606,-0.29409 1.416659,-0.29409 0.412589,0 0.811531,0.0464 1.196613,0.13971 0.385086,0.0934 0.756609,0.23384 1.114188,0.42053 v -1.21827 c -0.348408,-0.14002 -0.728841,-0.24504 -1.141431,-0.31505 -0.412589,-0.07 -0.852654,-0.10548 -1.320255,-0.10548 z"
       style="font-style:normal;font-weight:normal;font-size:10.51207066px;line-height:1.25;font-family:sans-serif;letter-spacing:0px;word-spacing:0px;fill:#ffffff;fill-opacity:1;stroke:none;stroke-width:0.35524878" />
    <path
       id="path16-3"
       d="m 49.996553,68.483985 a 58.252311,56.838929 0 0 0 -1.879549,0.09121 v 22.266011 a 35.043727,34.193458 0 0 1 2.254637,-0.07813 35.043727,34.193458 0 0 1 35.044462,34.193159 35.043727,34.193458 0 0 1 -0.03801,0.734 h 22.856697 a 58.252311,56.838929 0 0 0 0.0132,-0.36701 58.252311,56.838929 0 0 0 -58.251579,-56.839191 z"
       style="fill:#000000;fill-opacity:1;stroke:#000000;stroke-width:0.45788011;stroke-miterlimit:4;stroke-dasharray:none" />
    <path
       id="path16"
       d="m 50.338874,68.835558 a 55.341797,56.343713 0 0 0 -1.78564,0.09041 V 90.99798 a 33.292805,33.895543 0 0 1 2.141986,-0.07746 33.292805,33.895543 0 0 1 33.293505,33.89526 33.292805,33.895543 0 0 1 -0.03613,0.7276 h 21.714685 a 55.341797,56.343713 0 0 0 0.0127,-0.36379 55.341797,56.343713 0 0 0 -55.341106,-56.344 z"
       style="fill:#ffffff;fill-opacity:1;stroke:#000000;stroke-width:0.44434634;stroke-miterlimit:4;stroke-dasharray:none" />
  </g>
</svg>
